<?xml version="1.0" encoding="UTF-8"?>
<svg version="1.1" xmlns="http://www.w3.org/2000/svg" width="225" height="225">
<path d="M0 0 C74.25 0 148.5 0 225 0 C225 74.25 225 148.5 225 225 C150.75 225 76.5 225 0 225 C0 150.75 0 76.5 0 0 Z " fill="#4D4F49" transform="translate(0,0)"/>
<path d="M0 0 C74.25 0 148.5 0 225 0 C225 27.39 225 54.78 225 83 C150.75 83 76.5 83 0 83 C0 55.61 0 28.22 0 0 Z " fill="#64656C" transform="translate(0,142)"/>
<path d="M0 0 C74.25 0 148.5 0 225 0 C225 19.8 225 39.6 225 60 C150.75 60 76.5 60 0 60 C0 40.2 0 20.4 0 0 Z " fill="#534739" transform="translate(0,0)"/>
<path d="M0 0 C74.25 0 148.5 0 225 0 C225 11.88 225 23.76 225 36 C189.16131178 36.79550925 153.34130006 37.16214425 117.49389648 37.13037109 C110.97658342 37.12465961 104.45931113 37.1280723 97.94199944 37.13382339 C65.28163091 37.15804005 32.6502992 36.81521293 0 36 C0 24.12 0 12.24 0 0 Z " fill="#323139" transform="translate(0,106)"/>
<path d="M0 0 C74.25 0 148.5 0 225 0 C225 11.55 225 23.1 225 35 C150.75 35 76.5 35 0 35 C0 23.45 0 11.9 0 0 Z " fill="#5B5D65" transform="translate(0,190)"/>
<path d="M0 0 C4.4505835 0.00259483 8.90116532 0.00016691 13.35174894 -0.00138617 C20.81274115 -0.00318727 28.27372335 -0.00085606 35.73471403 0.00395441 C44.27295964 0.00939701 52.81118135 0.00762594 61.34942639 0.00212801 C68.77804613 -0.00245782 76.20665883 -0.00302744 83.63527954 -0.00043333 C88.02936608 0.00109927 92.42344153 0.00140879 96.81752729 -0.00196981 C117.40170115 -0.01570812 137.9254474 0.25606571 158.49350309 1.1343255 C158.49350309 7.4043255 158.49350309 13.6743255 158.49350309 20.1343255 C84.24350309 20.1343255 9.99350309 20.1343255 -66.50649691 20.1343255 C-66.50649691 13.8643255 -66.50649691 7.5943255 -66.50649691 1.1343255 C-44.33044988 0.26190888 -22.19181316 -0.0170895 0 0 Z " fill="#3D3D3B" transform="translate(66.50649690628052,39.86567449569702)"/>
<path d="M0 0 C74.25 0 148.5 0 225 0 C225 5.61 225 11.22 225 17 C164.94 17 104.88 17 43 17 C43 16.67 43 16.34 43 16 C28.81 15.67 14.62 15.34 0 15 C0 10.05 0 5.1 0 0 Z " fill="#57594E" transform="translate(0,106)"/>
<path d="M0 0 C6.45781324 0.06155601 12.91564443 0.12116866 19.37347412 0.18096924 C31.93989814 0.29761061 44.50630161 0.41632219 57.07269287 0.53643799 C57.07269287 4.49643799 57.07269287 8.45643799 57.07269287 12.53643799 C-17.17730713 12.53643799 -91.42730713 12.53643799 -167.92730713 12.53643799 C-167.92730713 8.57643799 -167.92730713 4.61643799 -167.92730713 0.53643799 C-158.37915458 0.40311923 -148.83096824 0.27261432 -139.28273392 0.14528656 C-134.84457826 0.08602321 -130.40643747 0.02594367 -125.96832275 -0.03631592 C-83.96895723 -0.62384648 -42.00121315 -0.40275785 0 0 Z " fill="#66686E" transform="translate(167.92730712890625,212.46356201171875)"/>
<path d="M0 0 C74.25 0 148.5 0 225 0 C225 3.96 225 7.92 225 12 C205.69979064 12.13157815 186.39957422 12.2620585 167.09934807 12.39115143 C158.13442489 12.45114139 149.16950444 12.51149397 140.20458984 12.57275391 C132.37495293 12.62625517 124.54531143 12.67902144 116.71566403 12.73096704 C112.58433299 12.75840029 108.45300481 12.78615929 104.32168198 12.81480408 C88.38440131 12.92506114 72.44746928 13.01960088 56.50976562 13.02734375 C55.3212393 13.02835335 54.13271297 13.02936295 52.9081707 13.03040314 C41.80919161 13.02601158 30.71952439 12.79456239 19.625 12.5 C17.6901127 12.45148128 15.7552168 12.40330443 13.8203125 12.35546875 C9.21343418 12.24086703 4.6066927 12.12182561 0 12 C0 8.04 0 4.08 0 0 Z " fill="#383533" transform="translate(0,0)"/>
<path d="M0 0 C74.25 0 148.5 0 225 0 C225 3.63 225 7.26 225 11 C149.98059101 12.24669897 75.01921954 12.26048917 0 11 C0 7.37 0 3.74 0 0 Z " fill="#606371" transform="translate(0,179)"/>
<path d="M0 0 C74.25 0 148.5 0 225 0 C225 2.97 225 5.94 225 9 C150.75 9 76.5 9 0 9 C0 6.03 0 3.06 0 0 Z " fill="#595A59" transform="translate(0,51)"/>
<path d="M0 0 C69.3 0 138.6 0 210 0 C210 0.33 210 0.66 210 1 C214.95 1.33 219.9 1.66 225 2 C225 4.31 225 6.62 225 9 C203.78956876 10.02602102 182.61676246 10.1498169 161.3867805 10.1343255 C156.71989436 10.13174325 152.0530099 10.13415535 147.38612366 10.13571167 C139.55908854 10.13751643 131.73206295 10.13517184 123.9050293 10.13037109 C114.93169134 10.12492987 105.95837611 10.12669704 96.9850387 10.1321975 C89.19731389 10.13677511 81.40959582 10.13735676 73.6218701 10.13475883 C69.007049 10.13322159 64.3922385 10.13293037 59.77741814 10.13629532 C39.82408782 10.14892498 19.93340193 9.99036999 0 9 C0 6.03 0 3.06 0 0 Z " fill="#3C403C" transform="translate(0,83)"/>
<path d="M0 0 C74.25 0 148.5 0 225 0 C225 2.31 225 4.62 225 7 C150.75 7 76.5 7 0 7 C0 4.69 0 2.38 0 0 Z " fill="#565861" transform="translate(0,172)"/>
<path d="M0 0 C66.66 0 133.32 0 202 0 C202 0.66 202 1.32 202 2 C209.59 2 217.18 2 225 2 C225 4.31 225 6.62 225 9 C216.09 9 207.18 9 198 9 C198 8.67 198 8.34 198 8 C99.99 7.505 99.99 7.505 0 7 C0 4.69 0 2.38 0 0 Z " fill="#42463D" transform="translate(0,76)"/>
<path d="M0 0 C74.25 0 148.5 0 225 0 C225 2.97 225 5.94 225 9 C220.73161194 9.02491426 216.46326361 9.04296047 212.19482422 9.05493164 C210.74592348 9.05992785 209.29702769 9.06672709 207.84814453 9.07543945 C193.02843217 9.16225376 193.02843217 9.16225376 186 8 C186 7.34 186 6.68 186 6 C184.81728075 6.00911329 184.81728075 6.00911329 183.61066818 6.01841068 C164.29009788 6.16686347 144.96948827 6.30853687 125.64881516 6.4429636 C116.30491223 6.50813333 106.96103496 6.57547156 97.6171875 6.64819336 C89.45871521 6.71168375 81.30022403 6.77082194 73.14168477 6.82505554 C68.83489206 6.85382827 64.52813649 6.88456091 60.2213974 6.92053413 C40.11415797 7.08695223 20.09010479 6.95166498 0 6 C0 4.02 0 2.04 0 0 Z " fill="#5C5B62" transform="translate(0,142)"/>
<path d="M0 0 C1.8555249 -0.01933594 1.8555249 -0.01933594 3.74853516 -0.0390625 C4.87308105 -0.04035156 5.99762695 -0.04164062 7.15625 -0.04296875 C8.12369141 -0.04707764 9.09113281 -0.05118652 10.08789062 -0.05541992 C12.5 0.1875 12.5 0.1875 15.5 2.1875 C17.94353685 2.49909247 17.94353685 2.49909247 20.72013855 2.4659729 C21.80127426 2.47713638 22.88240997 2.48829987 23.99630737 2.49980164 C25.77547043 2.50304192 25.77547043 2.50304192 27.59057617 2.50634766 C29.46391884 2.52141609 29.46391884 2.52141609 31.37510681 2.53678894 C34.80047605 2.56240765 38.22567915 2.57924645 41.65110564 2.59221697 C45.23061209 2.60783533 48.81003426 2.63462965 52.38948059 2.6602478 C59.16796516 2.70705859 65.94646555 2.74379152 72.72502929 2.77692068 C80.44205361 2.81512585 88.15899335 2.86454019 95.8759464 2.91490483 C111.75056982 3.01825887 127.62524064 3.10750793 143.5 3.1875 C143.5 3.5175 143.5 3.8475 143.5 4.1875 C139.4434164 4.94931513 135.61983446 5.31003239 131.49462891 5.30102539 C130.33387848 5.30094986 129.17312805 5.30087433 127.97720337 5.30079651 C126.73949188 5.29563522 125.5017804 5.29047394 124.2265625 5.28515625 C122.30824112 5.28303383 122.30824112 5.28303383 120.35116577 5.28086853 C116.96788664 5.27623022 113.58467614 5.26726081 110.20141602 5.25616455 C106.74235626 5.24589515 103.28328939 5.24135911 99.82421875 5.23632812 C93.04946034 5.22531609 86.27473413 5.20859064 79.5 5.1875 C79.5 5.8475 79.5 6.5075 79.5 7.1875 C77.85 7.1875 76.2 7.1875 74.5 7.1875 C74.5 6.5275 74.5 5.8675 74.5 5.1875 C73.51 5.5175 72.52 5.8475 71.5 6.1875 C70.0735686 6.30072825 68.6427751 6.36345476 67.2121582 6.39282227 C66.35149246 6.41276749 65.49082672 6.43271271 64.6040802 6.45326233 C63.21644722 6.47833107 63.21644722 6.47833107 61.80078125 6.50390625 C60.37550362 6.5350779 60.37550362 6.5350779 58.9214325 6.56687927 C55.88519544 6.63228052 52.84887169 6.69121604 49.8125 6.75 C47.75454831 6.79319417 45.69660541 6.83680876 43.63867188 6.88085938 C38.59253684 6.98795231 33.54631457 7.08924646 28.5 7.1875 C29.48978801 8.39767757 29.48978801 8.39767757 31.4055872 8.30775452 C32.66723021 8.3044236 32.66723021 8.3044236 33.95436096 8.30102539 C34.91706909 8.3009549 35.87977722 8.3008844 36.87165833 8.30081177 C37.93696274 8.29564545 39.00226715 8.29047913 40.09985352 8.28515625 C41.21546661 8.28369598 42.33107971 8.28223572 43.48049927 8.2807312 C45.91520691 8.27691274 48.34991174 8.27078326 50.78460884 8.26266479 C54.64945656 8.2499323 58.51427003 8.24339199 62.37913513 8.23852539 C71.30143371 8.2260929 80.22370223 8.20457909 89.14598083 8.18229675 C97.93585558 8.16040489 106.7257114 8.14254934 115.51560783 8.13156128 C119.30189657 8.12513079 123.08813302 8.11261436 126.87440491 8.09985352 C138.79194043 8.07494985 150.61957244 8.17720557 162.5 9.1875 C162.5 9.5175 162.5 9.8475 162.5 10.1875 C128.02772622 11.35023253 93.55692724 11.34296102 59.07009196 11.31606841 C53.67302371 11.31230107 48.27597382 11.31365592 42.87890625 11.31787109 C8.40799492 11.34417474 -26.04200391 11.2763015 -60.5 10.1875 C-60.5 7.2175 -60.5 4.2475 -60.5 1.1875 C-19.2475113 0.09656346 -19.2475113 0.09656346 0 0 Z " fill="#434451" transform="translate(60.5,13.8125)"/>
<path d="M0 0 C15.84 0 31.68 0 48 0 C48 0.33 48 0.66 48 1 C135.615 1.495 135.615 1.495 225 2 C225 3.65 225 5.3 225 7 C150.75 7 76.5 7 0 7 C0 4.69 0 2.38 0 0 Z " fill="#393631" transform="translate(0,121)"/>
<path d="M0 0 C74.25 0 148.5 0 225 0 C225 1.65 225 3.3 225 5 C149.97843061 6.29578308 75.02572825 5.83457707 0 5 C0 3.35 0 1.7 0 0 Z " fill="#484A51" transform="translate(0,167)"/>
<path d="M0 0 C74.25 0 148.5 0 225 0 C225 1.65 225 3.3 225 5 C180.31089468 6.24415189 135.64959194 5.95685766 90.95022082 5.62664449 C81.00250686 5.55343719 71.05474428 5.48827385 61.10697198 5.42356598 C40.73791878 5.29090114 20.36894113 5.14882781 0 5 C0 3.35 0 1.7 0 0 Z " fill="#494942" transform="translate(0,101)"/>
<path d="M0 0 C74.25 0 148.5 0 225 0 C225 1.65 225 3.3 225 5 C150.75 5 76.5 5 0 5 C0 3.35 0 1.7 0 0 Z " fill="#5C564F" transform="translate(0,128)"/>
<path d="M0 0 C11.04165544 -0.03147825 22.08330651 -0.05127481 33.125 -0.0625 C33.96090164 -0.06335602 34.79680328 -0.06421204 35.65803528 -0.06509399 C63.69206713 -0.09036703 91.71869327 0.11348136 119.75 0.5 C121.05147854 0.51793673 121.05147854 0.51793673 122.37924957 0.53623581 C132.91963125 0.68227178 143.45987169 0.83666044 154 1 C154 1.99 154 2.98 154 4 C177.43 4.33 200.86 4.66 225 5 C225 5.66 225 6.32 225 7 C150.75 7 76.5 7 0 7 C0 4.69 0 2.38 0 0 Z " fill="#5B5C63" transform="translate(0,206)"/>
<path d="M0 0 C74.25 0 148.5 0 225 0 C225 1.65 225 3.3 225 5 C164.94 5 104.88 5 43 5 C43 4.67 43 4.34 43 4 C28.81 3.67 14.62 3.34 0 3 C0 2.01 0 1.02 0 0 Z " fill="#5D5D53" transform="translate(0,118)"/>
<path d="M0 0 C74.25 0 148.5 0 225 0 C225 1.65 225 3.3 225 5 C169.89 5 114.78 5 58 5 C58 4.67 58 4.34 58 4 C38.86 3.67 19.72 3.34 0 3 C0 2.01 0 1.02 0 0 Z " fill="#6F717C" transform="translate(0,190)"/>
<path d="M0 0 C31.02 0 62.04 0 94 0 C94 0.33 94 0.66 94 1 C158.845 1.495 158.845 1.495 225 2 C225 4.31 225 6.62 225 9 C216.72452271 9.02317605 208.449059 9.04094195 200.17355728 9.05181217 C196.33086246 9.05702947 192.48818985 9.06410622 188.64550781 9.07543945 C184.93672212 9.08630927 181.2279578 9.09228553 177.51915741 9.09487724 C176.10458795 9.0967241 174.69001965 9.10033053 173.27545929 9.10573006 C171.29335166 9.11299468 169.3112225 9.11340852 167.32910156 9.11352539 C166.20103088 9.115746 165.07296021 9.11796661 163.91070557 9.12025452 C161.39876384 9.01647475 159.39977349 8.67037952 157 8 C154.68818181 7.87388148 152.373419 7.79855221 150.05859375 7.75390625 C148.66397394 7.72223866 147.26936152 7.69024374 145.87475586 7.65795898 C145.1490036 7.64256073 144.42325134 7.62716248 143.67550659 7.61129761 C130.69757087 7.32832605 117.87896705 6.72950926 105 5 C105 4.34 105 3.68 105 3 C103.95102539 3.03552979 102.90205078 3.07105957 101.82128906 3.10766602 C76.92752054 3.92182184 52.0865538 4.03281546 27.1875 3.5625 C26.50855179 3.54968616 25.82960358 3.53687233 25.13008118 3.5236702 C16.75306009 3.3641903 8.37639532 3.18955045 0 3 C0 2.01 0 1.02 0 0 Z " fill="#48494E" transform="translate(0,193)"/>
<path d="M0 0 C61.38 0 122.76 0 186 0 C186 0.66 186 1.32 186 2 C205.305 2.495 205.305 2.495 225 3 C225 3.66 225 4.32 225 5 C161.64 5 98.28 5 33 5 C33 4.34 33 3.68 33 3 C22.11 3 11.22 3 0 3 C0 2.01 0 1.02 0 0 Z " fill="#73737A" transform="translate(0,148)"/>
<path d="M0 0 C5.59925124 0.06146687 11.19852168 0.12113188 16.79779053 0.18096924 C27.70080433 0.29774097 38.60379616 0.41644006 49.5067749 0.53643799 C49.5067749 1.85643799 49.5067749 3.17643799 49.5067749 4.53643799 C-24.7432251 4.53643799 -98.9932251 4.53643799 -175.4932251 4.53643799 C-175.4932251 3.21643799 -175.4932251 1.89643799 -175.4932251 0.53643799 C-162.95571335 0.40426902 -150.41818527 0.27377823 -137.88063526 0.14528656 C-132.05560784 0.08553882 -126.23058696 0.02526579 -120.40557861 -0.03631592 C-80.25790784 -0.45999017 -40.1473161 -0.44317644 0 0 Z " fill="#79797B" transform="translate(175.49322509765625,220.46356201171875)"/>
<path d="M0 0 C42.9 0 85.8 0 130 0 C130 0.99 130 1.98 130 3 C130.66 2.67 131.32 2.34 132 2 C133.59123084 1.90457637 135.18642876 1.87204864 136.78051758 1.87060547 C137.78331253 1.86749359 138.78610748 1.86438171 139.81929016 1.86117554 C140.91661972 1.86315948 142.01394928 1.86514343 143.14453125 1.8671875 C144.28605148 1.86586823 145.42757172 1.86454895 146.60368347 1.8631897 C150.33998277 1.86126466 154.07620825 1.86762496 157.8125 1.875 C159.07376709 1.87588623 160.33503418 1.87677246 161.63452148 1.87768555 C182.76980571 1.89518945 203.87913426 2.2268842 225 3 C225 3.66 225 4.32 225 5 C150.75 5 76.5 5 0 5 C0 3.35 0 1.7 0 0 Z " fill="#666770" transform="translate(0,162)"/>
<path d="M0 0 C74.25 0 148.5 0 225 0 C225 1.32 225 2.64 225 4 C150.75 4 76.5 4 0 4 C0 2.68 0 1.36 0 0 Z " fill="#6E6E72" transform="translate(0,217)"/>
<path d="M0 0 C26.4 0 52.8 0 80 0 C80 0.33 80 0.66 80 1 C151.775 1.495 151.775 1.495 225 2 C225 2.99 225 3.98 225 5 C149.9809509 6.24669299 75.01886343 6.26775795 0 5 C0 3.35 0 1.7 0 0 Z " fill="#3D3E45" transform="translate(0,185)"/>
<path d="M0 0 C71.61 0 143.22 0 217 0 C217 0.33 217 0.66 217 1 C219.64 1.33 222.28 1.66 225 2 C225 2.99 225 3.98 225 5 C222.47958689 5.19667089 219.95911728 5.38254317 217.4375 5.5625 C216.73302734 5.61857422 216.02855469 5.67464844 215.30273438 5.73242188 C210.68561569 6.05157754 206.5591248 5.80878035 202 5 C202 4.34 202 3.68 202 3 C201.25373604 3.07068632 200.50747208 3.14137264 199.73859406 3.21420097 C190.62959546 4.00390677 181.57045657 4.1423882 172.43554688 4.12939453 C170.81255047 4.13075301 169.18955437 4.13253544 167.56655884 4.13470459 C163.19414946 4.13922869 158.82176392 4.13750942 154.44935417 4.1343255 C149.84143897 4.1317723 145.23352564 4.13414794 140.62561035 4.13571167 C132.88223916 4.13752624 125.13887754 4.13514731 117.39550781 4.13037109 C108.49734332 4.12494527 99.59920181 4.12668178 90.70103788 4.1321975 C83.01558345 4.13676747 75.33013585 4.13735988 67.6446805 4.13475883 C63.07508246 4.13321527 58.50549514 4.13294832 53.93589783 4.13629532 C17.57802287 4.15940643 17.57802287 4.15940643 0 3 C0 2.01 0 1.02 0 0 Z " fill="#413830" transform="translate(0,73)"/>
<path d="M0 0 C3.95333915 0.00261678 7.90667657 0.00016085 11.86001587 -0.00138617 C18.49527411 -0.00318342 25.13052108 -0.00086886 31.76577759 0.00395441 C38.47314179 0.00877555 45.18048372 0.00878283 51.8878479 0.00395441 C123.80227748 -0.04663579 123.80227748 -0.04663579 158.84829712 1.1343255 C158.84829712 2.1243255 158.84829712 3.1143255 158.84829712 4.1343255 C139.54808806 4.26594696 120.24787133 4.39638401 100.94764519 4.52547693 C91.98272201 4.58546689 83.01780156 4.64581948 74.05288696 4.70707941 C66.22325005 4.76058067 58.39360855 4.81334694 50.56396115 4.86529255 C46.4326301 4.89272579 42.30130193 4.9204848 38.1699791 4.94912958 C22.23269843 5.05938665 6.2957664 5.15392638 -9.64193726 5.16166925 C-10.83046358 5.16267885 -12.01898991 5.16368845 -13.24353218 5.16472864 C-24.34251127 5.16033708 -35.43217849 4.92888789 -46.52670288 4.6343255 C-48.46159018 4.58580679 -50.39648608 4.53762993 -52.33139038 4.48979425 C-56.9382687 4.37519254 -61.54501018 4.25615111 -66.15170288 4.1343255 C-66.15170288 3.1443255 -66.15170288 2.1543255 -66.15170288 1.1343255 C-44.09555709 0.36597348 -22.06897101 -0.0193515 0 0 Z " fill="#2B223C" transform="translate(66.15170288085938,7.8656744956970215)"/>
<path d="M0 0 C74.25 0 148.5 0 225 0 C225 1.65 225 3.3 225 5 C214.44 5 203.88 5 193 5 C193 4.67 193 4.34 193 4 C129.31 3.67 65.62 3.34 0 3 C0 2.01 0 1.02 0 0 Z " fill="#5E5B58" transform="translate(0,70)"/>
<path d="M0 0 C4.63387353 0.00257623 9.26774533 0.00017139 13.90161896 -0.00138617 C21.68450023 -0.00319424 29.46737195 -0.00083915 37.25025177 0.00395441 C46.15865061 0.00937898 55.06702649 0.00764196 63.97542477 0.00212801 C71.70794587 -0.00246084 79.44046019 -0.00302544 87.17298222 -0.00043333 C91.75392849 0.00110014 96.33486411 0.00140662 100.91580963 -0.00196981 C122.68480006 -0.01589169 144.40626069 0.25427135 166.15894318 1.1343255 C166.15894318 2.1243255 166.15894318 3.1143255 166.15894318 4.1343255 C149.47166018 4.34259567 132.78417397 4.52820986 116.09644318 4.6968255 C114.83745461 4.70955877 113.57846603 4.72229204 112.28132629 4.73541117 C71.35777951 5.14275878 30.45780912 5.12367624 -10.46605682 4.6968255 C-11.69578846 4.68401167 -12.9255201 4.67119783 -14.19251633 4.6579957 C-29.0755887 4.50130985 -43.95841168 4.32729773 -58.84105682 4.1343255 C-58.84105682 3.1443255 -58.84105682 2.1543255 -58.84105682 1.1343255 C-39.22770164 -0.00804984 -19.63815645 -0.01438966 0 0 Z " fill="#2B2A28" transform="translate(58.84105682373047,65.86567449569702)"/>
<path d="M0 0 C74.25 0 148.5 0 225 0 C225 0.99 225 1.98 225 3 C182.69965674 3.86024693 140.41629075 4.16155706 98.10795951 4.12856841 C91.82220097 4.12418841 85.5364622 4.12736422 79.25070488 4.1321975 C73.03939803 4.13677382 66.8280996 4.13736001 60.61679161 4.13475883 C56.97116811 4.1332323 53.32555799 4.13290044 49.67993546 4.13629532 C33.09357309 4.1497265 16.56441194 3.89927137 0 3 C0 2.01 0 1.02 0 0 Z " fill="#363332" transform="translate(0,133)"/>
<path d="M0 0 C74.25 0 148.5 0 225 0 C225 0.99 225 1.98 225 3 C211.90137071 3.75872994 198.86078818 4.14617027 185.74145508 4.12939453 C183.9138943 4.13075467 182.0863338 4.132538 180.2587738 4.13470459 C175.36227166 4.13920521 170.46579094 4.13752046 165.56928849 4.1343255 C160.40700622 4.13176446 155.24472559 4.13414963 150.08244324 4.13571167 C141.42255326 4.13752207 132.76267187 4.13515637 124.1027832 4.13037109 C114.13364374 4.12492549 104.16452473 4.12669788 94.19538575 4.1321975 C85.58501983 4.1367548 76.97466002 4.13736657 68.36429328 4.13475883 C63.24383852 4.13321107 58.12339334 4.13296076 53.00293922 4.13629532 C48.18876132 4.1392125 43.37460947 4.13712868 38.56043434 4.13140106 C36.80825849 4.13009411 35.0560804 4.13043178 33.30390549 4.13266373 C22.16494482 4.14553013 11.11241049 3.77905897 0 3 C0 2.01 0 1.02 0 0 Z " fill="#353531" transform="translate(0,115)"/>
<path d="M0 0 C74.25 0 148.5 0 225 0 C225 0.99 225 1.98 225 3 C150.75 3 76.5 3 0 3 C0 2.01 0 1.02 0 0 Z " fill="#3C3D43" transform="translate(0,179)"/>
<path d="M0 0 C74.25 0 148.5 0 225 0 C225 0.99 225 1.98 225 3 C150.75 3 76.5 3 0 3 C0 2.01 0 1.02 0 0 Z " fill="#626456" transform="translate(0,98)"/>
<path d="M0 0 C74.25 0 148.5 0 225 0 C225 0.99 225 1.98 225 3 C150.75 3 76.5 3 0 3 C0 2.01 0 1.02 0 0 Z " fill="#5E5E5E" transform="translate(0,60)"/>
<path d="M0 0 C74.25 0 148.5 0 225 0 C225 0.99 225 1.98 225 3 C150.75 3 76.5 3 0 3 C0 2.01 0 1.02 0 0 Z " fill="#272826" transform="translate(0,51)"/>
<path d="M0 0 C27.85980966 -0.02337111 55.71961785 -0.04099988 83.57943535 -0.05181217 C96.51552534 -0.05696617 109.45160923 -0.06399182 122.38769531 -0.07543945 C133.66414015 -0.08541364 144.94058057 -0.09185995 156.21702969 -0.09408849 C162.18655069 -0.09539095 168.15605907 -0.0984474 174.12557602 -0.10573006 C179.74792632 -0.1125334 185.37025882 -0.11460818 190.99261284 -0.11310768 C193.05248677 -0.11338207 195.11236131 -0.11536153 197.17223167 -0.11920547 C199.9932505 -0.12421017 202.8142029 -0.12297344 205.63522339 -0.12025452 C206.84636159 -0.12462378 206.84636159 -0.12462378 208.08196723 -0.12908131 C213.7700241 -0.11435108 219.35077696 0.34784256 225 1 C225 2.32 225 3.64 225 5 C216.09 5 207.18 5 198 5 C198 4.67 198 4.34 198 4 C99.99 3.505 99.99 3.505 0 3 C0 2.01 0 1.02 0 0 Z " fill="#635D4F" transform="translate(0,80)"/>
<path d="M0 0 C74.25 0 148.5 0 225 0 C225 0.99 225 1.98 225 3 C150.75 3 76.5 3 0 3 C0 2.01 0 1.02 0 0 Z " fill="#545958" transform="translate(0,48)"/>
<path d="M0 0 C74.25 0 148.5 0 225 0 C225 0.99 225 1.98 225 3 C150.75 3 76.5 3 0 3 C0 2.01 0 1.02 0 0 Z " fill="#757783" transform="translate(0,176)"/>
<path d="M0 0 C74.25 0 148.5 0 225 0 C225 0.99 225 1.98 225 3 C150.75 3 76.5 3 0 3 C0 2.01 0 1.02 0 0 Z " fill="#6D6769" transform="translate(0,136)"/>
<path d="M0 0 C64.35 0 128.7 0 195 0 C195 0.66 195 1.32 195 2 C204.9 2 214.8 2 225 2 C225 2.33 225 2.66 225 3 C150.75 3 76.5 3 0 3 C0 2.01 0 1.02 0 0 Z " fill="#6F6D64" transform="translate(0,112)"/>
<path d="M0 0 C74.25 0 148.5 0 225 0 C225 0.99 225 1.98 225 3 C150.75 3 76.5 3 0 3 C0 2.01 0 1.02 0 0 Z " fill="#585857" transform="translate(0,38)"/>
<path d="M0 0 C5.94 0 11.88 0 18 0 C18 1.65 18 3.3 18 5 C-56.25 5 -130.5 5 -207 5 C-207 4.01 -207 3.02 -207 2 C-206.08506555 2.00092179 -205.17013109 2.00184359 -204.22747135 2.00279331 C-181.85356462 2.024982 -159.47965982 2.04147615 -137.10574436 2.05181217 C-126.28541732 2.05694482 -115.46509768 2.06392899 -104.64477539 2.07543945 C-95.20192027 2.08547971 -85.75907052 2.0918754 -76.31621021 2.09408849 C-71.32710317 2.09537991 -66.33801145 2.09836435 -61.34890938 2.10573006 C-40.87386739 2.13483135 -20.45224453 2.10555426 0 1 C0 0.67 0 0.34 0 0 Z " fill="#5D5B4F" transform="translate(207,22)"/>
<path d="M0 0 C61.38 0 122.76 0 186 0 C186 0.66 186 1.32 186 2 C198.87 2 211.74 2 225 2 C225 2.33 225 2.66 225 3 C150.75 3 76.5 3 0 3 C0 2.01 0 1.02 0 0 Z " fill="#2C2B21" transform="translate(0,95)"/>
<path d="M0 0 C58.74 0 117.48 0 178 0 C178 0.33 178 0.66 178 1 C201.265 1.495 201.265 1.495 225 2 C225 2.33 225 2.66 225 3 C203.78956876 4.02602102 182.61676246 4.1498169 161.3867805 4.1343255 C156.71989436 4.13174325 152.0530099 4.13415535 147.38612366 4.13571167 C139.55908854 4.13751643 131.73206295 4.13517184 123.9050293 4.13037109 C114.93169134 4.12492987 105.95837611 4.12669704 96.9850387 4.1321975 C89.19731389 4.13677511 81.40959582 4.13735676 73.6218701 4.13475883 C69.007049 4.13322159 64.3922385 4.13293037 59.77741814 4.13629532 C39.82595593 4.1489238 19.93093938 4.01313651 0 3 C0 2.01 0 1.02 0 0 Z " fill="#2D2C24" transform="translate(0,89)"/>
<path d="M0 0 C74.25 0 148.5 0 225 0 C225 0.99 225 1.98 225 3 C150.75 3 76.5 3 0 3 C0 2.01 0 1.02 0 0 Z " fill="#645643" transform="translate(0,6)"/>
<path d="M0 0 C24.60797702 -0.06999543 49.21593917 -0.12294166 73.82399559 -0.15543652 C85.24923398 -0.17092361 96.67441062 -0.19204823 108.09960938 -0.22631836 C118.05460482 -0.25616442 128.00955555 -0.27556159 137.96459448 -0.28226548 C143.23862275 -0.28618589 148.51252309 -0.29543743 153.78651047 -0.31719017 C158.74569214 -0.33747969 163.70469259 -0.34384915 168.66391182 -0.33932304 C170.48849661 -0.34015164 172.31308716 -0.34616197 174.13763618 -0.35761642 C176.62009032 -0.37244296 179.10185141 -0.36899011 181.58432007 -0.36076355 C182.31388361 -0.36950207 183.04344716 -0.3782406 183.79511869 -0.38724393 C185.8022213 -0.36914349 185.8022213 -0.36914349 189 0 C189.99 1.485 189.99 1.485 191 3 C181.4107185 4.17338989 171.86653121 4.09820878 162.2277832 4.02172852 C160.45278677 4.01156762 158.67778761 4.00187596 156.90278625 3.99261475 C152.11429608 3.96631485 147.32587065 3.93349984 142.53743005 3.89946485 C137.52198028 3.864941 132.5064961 3.83647865 127.49101257 3.80735779 C118.00695292 3.75137844 108.52293637 3.68999235 99.03892344 3.62663645 C88.23599702 3.55473513 77.43303623 3.4889028 66.63006842 3.42356598 C44.42000097 3.2891033 22.20998734 3.14706553 0 3 C0 2.01 0 1.02 0 0 Z " fill="#2A2A21" transform="translate(0,103)"/>
<path d="M0 0 C0 0.33 0 0.66 0 1 C14.85 1.33 29.7 1.66 45 2 C45 2.66 45 3.32 45 4 C27.18 4 9.36 4 -9 4 C-9 3.67 -9 3.34 -9 3 C-93.645 2.505 -93.645 2.505 -180 2 C-180 1.34 -180 0.68 -180 0 C-119.97755261 -1.28963487 -60.02193516 -1.12102103 0 0 Z " fill="#605145" transform="translate(180,87)"/>
<path d="M0 0 C66 0 132 0 200 0 C200 0.33 200 0.66 200 1 C208.25 1.33 216.5 1.66 225 2 C225 2.33 225 2.66 225 3 C150.75 3 76.5 3 0 3 C0 2.01 0 1.02 0 0 Z " fill="#101011" transform="translate(0,57)"/>
<path d="M0 0 C4.4505835 0.00259483 8.90116532 0.00016691 13.35174894 -0.00138617 C20.81274115 -0.00318727 28.27372335 -0.00085606 35.73471403 0.00395441 C44.27295964 0.00939701 52.81118135 0.00762594 61.34942639 0.00212801 C68.77804613 -0.00245782 76.20665883 -0.00302744 83.63527954 -0.00043333 C88.02936608 0.00109927 92.42344153 0.00140879 96.81752729 -0.00196981 C117.40055361 -0.01570735 137.92697693 0.23962243 158.49350309 1.1343255 C158.49350309 1.7943255 158.49350309 2.4543255 158.49350309 3.1343255 C84.24350309 3.1343255 9.99350309 3.1343255 -66.50649691 3.1343255 C-66.50649691 2.4743255 -66.50649691 1.8143255 -66.50649691 1.1343255 C-44.33163609 0.24686907 -22.19090273 -0.0170888 0 0 Z " fill="#48423E" transform="translate(66.50649690628052,39.86567449569702)"/>
<path d="M0 0 C5.33751608 0.00377184 10.67501361 0.00240787 16.01252902 -0.00180268 C50.28574928 -0.02821711 84.53899499 0.05014991 118.79939425 1.12856841 C118.79939425 1.78856841 118.79939425 2.44856841 118.79939425 3.12856841 C44.54939425 3.12856841 -29.70060575 3.12856841 -106.20060575 3.12856841 C-106.20060575 2.46856841 -106.20060575 1.80856841 -106.20060575 1.12856841 C-70.80104133 0.04829614 -35.41182123 -0.02795705 0 0 Z " fill="#4D3D38" transform="translate(106.20060575008392,25.871431589126587)"/>
<path d="M0 0 C48.18 0 96.36 0 146 0 C146 0.99 146 1.98 146 3 C97.82 3 49.64 3 0 3 C0 2.01 0 1.02 0 0 Z " fill="#71694D" transform="translate(0,30)"/>
<path d="M0 0 C6.51447727 -0.02529705 13.02894193 -0.04284444 19.54345703 -0.05493164 C21.76090976 -0.05996909 23.97835916 -0.06679922 26.19580078 -0.07543945 C29.37793805 -0.08753072 32.56003151 -0.0932341 35.7421875 -0.09765625 C36.73805878 -0.10281754 37.73393005 -0.10797882 38.75997925 -0.11329651 C39.68078278 -0.11337204 40.6015863 -0.11344757 41.55029297 -0.11352539 C42.3630368 -0.115746 43.17578064 -0.11796661 44.01315308 -0.12025452 C46.2118366 0.01282147 47.42943596 0.42943596 49 2 C50.32 1.34 51.64 0.68 53 0 C53.495 0.99 53.495 0.99 54 2 C81.72 2 109.44 2 138 2 C138 2.66 138 3.32 138 4 C122.00686466 4.93901676 106.06491644 5.14809258 90.046875 5.1328125 C87.52337637 5.13348779 84.9998778 5.13445969 82.47637939 5.13571167 C77.23912932 5.13717264 72.00189649 5.13508255 66.76464844 5.13037109 C60.71064316 5.12519072 54.65667909 5.12673791 48.6026752 5.1321975 C42.74375191 5.13726855 36.88484137 5.13675168 31.02591705 5.13381577 C28.54267624 5.13314767 26.05943458 5.13397083 23.57619476 5.13629532 C20.13247855 5.13881712 16.68882843 5.13499071 13.24511719 5.12939453 C12.21572021 5.13141876 11.18632324 5.13344299 10.12573242 5.13552856 C8.73037262 5.13129883 8.73037262 5.13129883 7.30682373 5.12698364 C6.49434551 5.12660662 5.68186729 5.12622959 4.84476852 5.12584114 C3 5 3 5 2 4 C-0.34987262 3.76472227 -2.70556039 3.58613583 -5.0625 3.4375 C-6.35285156 3.35371094 -7.64320312 3.26992188 -8.97265625 3.18359375 C-10.47119141 3.09271484 -10.47119141 3.09271484 -12 3 C-12 2.67 -12 2.34 -12 2 C-6.06 1.505 -6.06 1.505 0 1 C0 0.67 0 0.34 0 0 Z " fill="#696F3A" transform="translate(87,18)"/>
<path d="M0 0 C42.9 0 85.8 0 130 0 C130 0.99 130 1.98 130 3 C87.1 3 44.2 3 0 3 C0 2.01 0 1.02 0 0 Z " fill="#7D7F88" transform="translate(0,162)"/>
<path d="M0 0 C11.04165544 -0.03147825 22.08330651 -0.05127481 33.125 -0.0625 C33.96090164 -0.06335602 34.79680328 -0.06421204 35.65803528 -0.06509399 C63.69206713 -0.09036703 91.71869327 0.11348136 119.75 0.5 C121.05147854 0.51793673 121.05147854 0.51793673 122.37924957 0.53623581 C132.91963125 0.68227178 143.45987169 0.83666044 154 1 C154 1.66 154 2.32 154 3 C103.18 3 52.36 3 0 3 C0 2.01 0 1.02 0 0 Z " fill="#6D6F79" transform="translate(0,206)"/>
<path d="M0 0 C4.79966635 0.00258522 9.59933109 0.00016991 14.39899755 -0.00138617 C22.43240261 -0.00318766 30.46579837 -0.00085258 38.49920201 0.00395441 C47.74093573 0.0094211 56.98264746 0.00760884 66.22438067 0.00212801 C74.2328347 -0.00242796 82.24128217 -0.00304239 90.24973708 -0.00043333 C95.00167256 0.00111227 99.75359772 0.00137045 104.5055325 -0.00196981 C108.96199557 -0.00488596 113.4184305 -0.00280505 117.87489057 0.00292444 C119.49526604 0.00423095 121.11564395 0.00389452 122.73601842 0.00166178 C133.14502411 -0.01134532 143.46306436 0.3636837 153.84417272 1.1343255 C153.84417272 1.4643255 153.84417272 1.7943255 153.84417272 2.1343255 C119.37189894 3.29705804 84.90109996 3.28978652 50.41426468 3.26289392 C45.01719643 3.25912658 39.62014654 3.26048143 34.22307897 3.2646966 C-0.24783236 3.29100024 -34.6978312 3.223127 -69.15582728 2.1343255 C-69.15582728 1.8043255 -69.15582728 1.4743255 -69.15582728 1.1343255 C-46.09917918 0.19248325 -23.07374041 -0.01639198 0 0 Z " fill="#340A1A" transform="translate(69.15582728385925,21.86567449569702)"/>
<path d="M0 0 C34.65 0 69.3 0 105 0 C105 0.66 105 1.32 105 2 C107.97 2 110.94 2 114 2 C114 2.33 114 2.66 114 3 C76.38 3 38.76 3 0 3 C0 2.01 0 1.02 0 0 Z " fill="#767884" transform="translate(0,196)"/>
<path d="M0 0 C37.95 0 75.9 0 115 0 C115 0.66 115 1.32 115 2 C102.21606486 3.1186191 89.48448449 3.12966971 76.66015625 3.09765625 C74.43957044 3.0957871 72.2189842 3.09436555 69.99839783 3.09336853 C64.20353013 3.08958245 58.4086882 3.07978635 52.61383057 3.06866455 C46.6807083 3.05836558 40.74758179 3.05385287 34.81445312 3.04882812 C23.20962421 3.0381599 11.60481426 3.02113146 0 3 C0 2.01 0 1.02 0 0 Z " fill="#757780" transform="translate(0,158)"/>
<path d="M0 0 C10.89 0 21.78 0 33 0 C33 0.66 33 1.32 33 2 C96.36 2 159.72 2 225 2 C225 2.33 225 2.66 225 3 C149.99860277 4.61019144 75.00421556 4.2381187 0 3 C0 2.01 0 1.02 0 0 Z " fill="#1A1B1E" transform="translate(0,151)"/>
<path d="M0 0 C5.48378534 0.00377644 10.96755265 0.00240425 16.45133734 -0.00180268 C50.07542331 -0.02700698 83.68499678 -0.05188493 117.29362249 1.12856841 C117.29362249 1.45856841 117.29362249 1.78856841 117.29362249 2.12856841 C82.06171713 3.20047324 46.83903921 3.28520418 11.59494066 3.25713682 C6.306181 3.25336657 1.01744006 3.25472769 -4.27131891 3.2589395 C-38.76081948 3.28577252 -73.22896929 3.17751821 -107.70637751 2.12856841 C-107.70637751 1.79856841 -107.70637751 1.46856841 -107.70637751 1.12856841 C-71.80515413 0.02292704 -35.91387232 -0.02763643 0 0 Z " fill="#170521" transform="translate(107.7063775062561,27.871431589126587)"/>
<path d="M0 0 C74.25 0 148.5 0 225 0 C225 0.99 225 1.98 225 3 C215.1 3 205.2 3 195 3 C195 2.34 195 1.68 195 1 C130.65 1 66.3 1 0 1 C0 0.67 0 0.34 0 0 Z " fill="#111114" transform="translate(0,111)"/>
<path d="M0 0 C5.04557848 0.00376514 10.0911373 0.00241276 15.13671505 -0.00180268 C50.32944701 -0.03052128 85.4995128 0.18698032 120.68236935 1.12856841 C120.68236935 1.45856841 120.68236935 1.78856841 120.68236935 2.12856841 C110.72998718 3.43197351 100.79734632 3.26928581 90.77978146 3.25796294 C88.76337794 3.25931949 86.74697467 3.26110085 84.73057187 3.263273 C79.27618203 3.26781681 73.82181119 3.26607042 68.36742103 3.26289392 C62.64879999 3.26035488 56.93018053 3.26271212 51.21155941 3.26428008 C41.61092474 3.26609712 32.01029777 3.26370751 22.40966427 3.2589395 C11.32154165 3.25349623 0.23343741 3.2552619 -10.85468477 3.26076591 C-20.38870771 3.26530844 -29.92272512 3.26594205 -39.45674878 3.26332724 C-45.14495314 3.26177095 -50.83314886 3.26155298 -56.52135265 3.26486373 C-61.86887648 3.26775905 -67.21637668 3.26573624 -72.56389797 3.25996947 C-74.52260792 3.25865085 -76.48131988 3.25902071 -78.44002903 3.26123214 C-81.12073746 3.26397897 -83.80137091 3.26051956 -86.48207462 3.25555205 C-87.2505732 3.25778278 -88.01907178 3.2600135 -88.81085819 3.26231182 C-94.04526043 3.24359606 -99.1225719 2.77609699 -104.31763065 2.12856841 C-104.31763065 1.79856841 -104.31763065 1.46856841 -104.31763065 1.12856841 C-69.54542058 0.11673191 -34.78356654 -0.02898805 0 0 Z " fill="#240308" transform="translate(104.31763064861298,35.87143158912659)"/>
<path d="M0 0 C31.02 0 62.04 0 94 0 C94 0.66 94 1.32 94 2 C95.65 2 97.3 2 99 2 C99 2.33 99 2.66 99 3 C66.33 3 33.66 3 0 3 C0 2.01 0 1.02 0 0 Z " fill="#654B4C" transform="translate(0,34)"/>
<path d="M0 0 C6.50810712 0.00566371 13.01617297 0.0023315 19.52427864 -0.0034523 C55.20742208 -0.03006813 90.86234885 0.373105 126.53686523 1.13037109 C126.53686523 2.12037109 126.53686523 3.11037109 126.53686523 4.13037109 C125.21686523 4.13037109 123.89686523 4.13037109 122.53686523 4.13037109 C122.53686523 3.47037109 122.53686523 2.81037109 122.53686523 2.13037109 C120.90747261 2.14916321 120.90747261 2.14916321 119.24516296 2.16833496 C-37.68431605 3.97022584 -37.68431605 3.97022584 -98.46313477 2.13037109 C-98.46313477 1.80037109 -98.46313477 1.47037109 -98.46313477 1.13037109 C-65.63988334 0.2276247 -32.83485709 -0.02889809 0 0 Z " fill="#0C040B" transform="translate(98.463134765625,41.86962890625)"/>
<path d="M0 0 C32.67 0 65.34 0 99 0 C98.67 0.99 98.34 1.98 98 3 C93.33333333 3 88.66666667 3 84 3 C82.10961908 3.00526655 80.21923823 3.01056224 78.32885742 3.01586914 C72.19271528 3.03214727 66.05657864 3.04355766 59.92042065 3.05181217 C56.21280364 3.05697322 52.50521063 3.06394542 48.79760742 3.07543945 C32.50712281 3.12465326 16.26292814 3.09772599 0 2 C0 1.34 0 0.68 0 0 Z " fill="#40477B" transform="translate(0,0)"/>
<path d="M0 0 C9.38933683 -0.02332827 18.77866345 -0.04101829 28.16802311 -0.05181217 C32.52942502 -0.05699668 36.89080689 -0.06401223 41.25219727 -0.07543945 C45.47325775 -0.08642785 49.69429914 -0.09231006 53.91537285 -0.09487724 C55.51343524 -0.09670311 57.11149676 -0.10026733 58.70955086 -0.10573006 C66.66289463 -0.13179798 74.59816259 -0.06596197 82.54077148 0.38110352 C83.7620726 0.4498317 84.98337372 0.51855988 86.24168396 0.58937073 C87.15192825 0.72487839 88.06217255 0.86038605 89 1 C89.495 1.99 89.495 1.99 90 3 C60.3 3 30.6 3 0 3 C0 2.01 0 1.02 0 0 Z " fill="#343676" transform="translate(0,20)"/>
<path d="M0 0 C0.70254913 -0.00014603 1.40509827 -0.00029205 2.12893677 -0.0004425 C4.45561795 0.00025525 6.78221949 0.0080412 9.10888672 0.01586914 C10.72028561 0.01773381 12.33168506 0.01915748 13.94308472 0.02015686 C18.18786174 0.02397819 22.43260464 0.03380521 26.67736816 0.04486084 C31.0074009 0.05508321 35.33743915 0.05965625 39.66748047 0.06469727 C48.16619406 0.07542781 56.6648799 0.09249964 65.16357422 0.11352539 C65.16357422 1.10352539 65.16357422 2.09352539 65.16357422 3.11352539 C40.74357422 3.11352539 16.32357422 3.11352539 -8.83642578 3.11352539 C-8.83642578 2.45352539 -8.83642578 1.79352539 -8.83642578 1.11352539 C-5.89395851 -0.35770825 -3.28457556 -0.00572226 0 0 Z " fill="#743A3F" transform="translate(159.83642578125,-0.113525390625)"/>
<path d="M0 0 C21.78 0 43.56 0 66 0 C66 0.99 66 1.98 66 3 C44.22 3 22.44 3 0 3 C0 2.01 0 1.02 0 0 Z " fill="#736D72" transform="translate(0,130)"/>
<path d="M0 0 C6.86441236 -0.02560525 13.72881215 -0.04297267 20.59326172 -0.05493164 C22.92269348 -0.05992351 25.25212218 -0.06671934 27.58154297 -0.07543945 C52.40863909 -0.16597155 52.40863909 -0.16597155 64 1 C64 1.66 64 2.32 64 3 C42.59873483 3.80556145 21.40041968 4.15261176 0 3 C0 2.01 0 1.02 0 0 Z " fill="#3A3C46" transform="translate(0,145)"/>
<path d="M0 0 C20.46 0 40.92 0 62 0 C62.495 1.485 62.495 1.485 63 3 C42.21 3 21.42 3 0 3 C0 2.01 0 1.02 0 0 Z " fill="#787275" transform="translate(0,108)"/>
<path d="M0 0 C4.00359552 0.01043006 8.00719789 0.01483872 12.01080322 0.01983643 C19.79597744 0.03040079 27.58111894 0.04735165 35.36627197 0.06866455 C35.36627197 0.72866455 35.36627197 1.38866455 35.36627197 2.06866455 C14.24378486 2.62525963 -6.877841 3.16775623 -28.00872803 3.19366455 C-29.05777817 3.19741089 -29.05777817 3.19741089 -30.12802124 3.20123291 C-39.35168473 3.22856593 -48.44526293 2.85237082 -57.63372803 2.06866455 C-57.63372803 1.73866455 -57.63372803 1.40866455 -57.63372803 1.06866455 C-38.41437088 0.02408307 -19.23975465 -0.05562795 0 0 Z " fill="#60191B" transform="translate(189.63372802734375,29.93133544921875)"/>
<path d="M0 0 C5.08435675 0.07273788 10.16882932 0.1362927 15.2532959 0.20080566 C25.09912616 0.32699292 34.94479744 0.46267192 44.79040527 0.60510254 C44.79040527 0.93510254 44.79040527 1.26510254 44.79040527 1.60510254 C35.61782502 1.73716765 26.44522396 1.8676551 17.27259445 1.99625397 C13.01110505 2.0560463 8.74962401 2.11633584 4.48815918 2.17785645 C-20.01075217 2.53095933 -44.46424104 2.7962231 -68.95959473 2.10510254 C-70.7473485 2.05667947 -72.53510893 2.00850157 -74.32287598 1.96057129 C-78.61853036 1.84488739 -82.91408286 1.72595801 -87.20959473 1.60510254 C-87.20959473 1.27510254 -87.20959473 0.94510254 -87.20959473 0.60510254 C-58.12011798 -0.29292384 -29.0988053 -0.42637824 0 0 Z " fill="#09041E" transform="translate(87.2095947265625,18.3948974609375)"/>
<path d="M0 0 C1.1456543 0.00193359 2.29130859 0.00386719 3.47167969 0.00585938 C21.94263892 0.09197107 40.41107243 0.64113906 58.875 1.125 C58.875 1.455 58.875 1.785 58.875 2.125 C17.04313037 3.22123522 17.04313037 3.22123522 0 3.25 C-1.05799805 3.25451172 -2.11599609 3.25902344 -3.20605469 3.26367188 C-10.54858113 3.24950167 -17.8124682 2.77339456 -25.125 2.125 C-25.125 1.795 -25.125 1.465 -25.125 1.125 C-16.73243405 0.38083994 -8.42452325 -0.03592547 0 0 Z " fill="#640303" transform="translate(166.125,17.875)"/>
<path d="M0 0 C1.24539551 -0.01289063 2.49079102 -0.02578125 3.77392578 -0.0390625 C5.46557861 -0.04099609 5.46557861 -0.04099609 7.19140625 -0.04296875 C8.16408447 -0.04707764 9.1367627 -0.05118652 10.13891602 -0.05541992 C12.4375 0.1875 12.4375 0.1875 14.4375 2.1875 C11.87330061 3.4695997 10.06414985 3.31698123 7.19140625 3.3203125 C6.0636377 3.32224609 4.93586914 3.32417969 3.77392578 3.32617188 C2.52853027 3.32166016 1.28313477 3.31714844 0 3.3125 C-1.28922363 3.31056641 -2.57844727 3.30863281 -3.90673828 3.30664062 C-22.79556219 3.24443998 -41.68124557 2.6868214 -60.5625 2.1875 C-60.5625 1.8575 -60.5625 1.5275 -60.5625 1.1875 C-19.30882371 0.09653205 -19.30882371 0.09653205 0 0 Z " fill="#00006F" transform="translate(60.5625,13.8125)"/>
<path d="M0 0 C0 0.33 0 0.66 0 1 C-10.09296666 1.79180315 -20.08624846 2.14387172 -30.21484375 2.09375 C-31.64257256 2.08994398 -33.07030188 2.08632758 -34.49803162 2.08288574 C-50.10831925 2.03253579 -65.71656843 1.79296442 -81.32458496 1.53643799 C-85.14800032 1.4741847 -88.97146314 1.41498682 -92.79492188 1.35546875 C-100.19666184 1.23983029 -107.59834616 1.12103951 -115 1 C-115 0.67 -115 0.34 -115 0 C-102.22075412 -0.15455297 -89.44145118 -0.30272322 -76.66203976 -0.4429636 C-70.72671929 -0.5082933 -64.79143931 -0.57574107 -58.85620117 -0.64819336 C-53.11796998 -0.71816009 -47.37969947 -0.78234891 -41.64135933 -0.84269524 C-39.46273047 -0.86659043 -37.28412259 -0.89249418 -35.10554314 -0.92053413 C-23.3476735 -1.07049445 -11.71887106 -1.0620488 0 0 Z " fill="#020205" transform="translate(115,161)"/>
<path d="M0 0 C12.21 0 24.42 0 37 0 C37 0.66 37 1.32 37 2 C38.32 2.33 39.64 2.66 41 3 C27.47 3 13.94 3 0 3 C0 2.01 0 1.02 0 0 Z " fill="#707381" transform="translate(0,124)"/>
<path d="M0 0 C8.91 0 17.82 0 27 0 C27 0.99 27 1.98 27 3 C18.09 3 9.18 3 0 3 C0 2.01 0 1.02 0 0 Z " fill="#92939B" transform="translate(198,16)"/>
<path d="M0 0 C4.29 0 8.58 0 13 0 C12.01 0.495 12.01 0.495 11 1 C11 1.66 11 2.32 11 3 C7.37 3 3.74 3 0 3 C0 2.01 0 1.02 0 0 Z " fill="#444C6B" transform="translate(140,0)"/>
</svg>
